<svg width="42" height="43" viewBox="0 0 42 43" fill="none" xmlns="http://www.w3.org/2000/svg">
<g filter="url(#filter0_d_3808_13450)">
<rect x="6" y="4.5" width="30" height="30" rx="15" fill="white"/>
<rect x="6" y="4.5" width="30" height="30" rx="15" stroke="#F5F6F7" stroke-width="2"/>
<path d="M19.9453 20.3311L18.6367 20.0234L19.0664 16.3906H23.2217V17.6699H20.4092L20.248 19.0811C20.3262 19.0355 20.458 18.9818 20.6436 18.9199C20.8324 18.8548 21.0407 18.8223 21.2686 18.8223C21.6201 18.8223 21.931 18.876 22.2012 18.9834C22.4746 19.0876 22.7057 19.2422 22.8945 19.4473C23.0833 19.6491 23.2249 19.8981 23.3193 20.1943C23.417 20.4906 23.4658 20.8291 23.4658 21.21C23.4658 21.516 23.4154 21.8122 23.3145 22.0986C23.2168 22.3818 23.0654 22.6374 22.8604 22.8652C22.6585 23.0898 22.403 23.2689 22.0938 23.4023C21.7845 23.5326 21.4183 23.5977 20.9951 23.5977C20.6794 23.5977 20.3717 23.5488 20.0723 23.4512C19.7728 23.3535 19.5026 23.2135 19.2617 23.0312C19.0241 22.8457 18.8353 22.6227 18.6953 22.3623C18.5586 22.0986 18.4919 21.804 18.4951 21.4785H20.1504C20.1602 21.651 20.2008 21.8008 20.2725 21.9277C20.3441 22.0547 20.4401 22.154 20.5605 22.2256C20.6842 22.2939 20.8258 22.3281 20.9854 22.3281C21.1481 22.3281 21.2832 22.2956 21.3906 22.2305C21.498 22.1654 21.5827 22.0758 21.6445 21.9619C21.7064 21.848 21.7503 21.7178 21.7764 21.5713C21.8024 21.4215 21.8154 21.2637 21.8154 21.0977C21.8154 20.9219 21.7959 20.764 21.7568 20.624C21.721 20.484 21.6624 20.3652 21.5811 20.2676C21.4997 20.1667 21.3939 20.0902 21.2637 20.0381C21.1367 19.986 20.9837 19.96 20.8047 19.96C20.5671 19.96 20.3799 20.0007 20.2432 20.082C20.1064 20.1634 20.0072 20.2464 19.9453 20.3311Z" fill="#6B7A99"/>
</g>
<defs>
<filter id="filter0_d_3808_13450" x="0" y="0.5" width="42" height="42" filterUnits="userSpaceOnUse" color-interpolation-filters="sRGB">
<feFlood flood-opacity="0" result="BackgroundImageFix"/>
<feColorMatrix in="SourceAlpha" type="matrix" values="0 0 0 0 0 0 0 0 0 0 0 0 0 0 0 0 0 0 127 0" result="hardAlpha"/>
<feOffset dy="2"/>
<feGaussianBlur stdDeviation="2.5"/>
<feColorMatrix type="matrix" values="0 0 0 0 0.14902 0 0 0 0 0.2 0 0 0 0 0.301961 0 0 0 0.03 0"/>
<feBlend mode="normal" in2="BackgroundImageFix" result="effect1_dropShadow_3808_13450"/>
<feBlend mode="normal" in="SourceGraphic" in2="effect1_dropShadow_3808_13450" result="shape"/>
</filter>
</defs>
</svg>
