<svg width="20" height="13" viewBox="0 0 20 13" fill="none" xmlns="http://www.w3.org/2000/svg">
<path fill-rule="evenodd" clip-rule="evenodd" d="M14.4325 1.35L15.8725 2.79L10.9925 7.67L7.7025 4.38C7.51567 4.19275 7.26202 4.08751 6.9975 4.08751C6.73298 4.08751 6.47933 4.19275 6.2925 4.38L0.2925 10.39C-0.0975 10.78 -0.0975 11.41 0.2925 11.8C0.6825 12.19 1.3125 12.19 1.7025 11.8L6.9925 6.5L10.2825 9.79C10.6725 10.18 11.3025 10.18 11.6925 9.79L17.2825 4.21L18.7225 5.65C19.0325 5.96 19.5725 5.74 19.5725 5.3V1C19.5825 0.72 19.3625 0.5 19.0825 0.5H14.7925C14.3425 0.5 14.1225 1.04 14.4325 1.35Z" fill="#ADB8CC"/>
</svg>
