<svg width="15" height="14" viewBox="0 0 15 14" fill="none" xmlns="http://www.w3.org/2000/svg">
<path fill-rule="evenodd" clip-rule="evenodd" d="M10.8003 9.10049H10.1683L9.94431 8.88449C10.9043 7.76449 11.4003 6.23649 11.1283 4.61249C10.7523 2.38849 8.89631 0.612488 6.65631 0.340488C3.27231 -0.0755117 0.424305 2.77249 0.840305 6.15649C1.11231 8.39649 2.88831 10.2525 5.11231 10.6285C6.73631 10.9005 8.26431 10.4045 9.38431 9.44449L9.60031 9.66849V10.3005L13.0003 13.7005C13.3283 14.0285 13.8643 14.0285 14.1923 13.7005C14.5203 13.3725 14.5203 12.8365 14.1923 12.5085L10.8003 9.10049ZM6.0003 9.10049C4.0083 9.10049 2.4003 7.49249 2.4003 5.50049C2.4003 3.50849 4.0083 1.90049 6.0003 1.90049C7.9923 1.90049 9.6003 3.50849 9.6003 5.50049C9.6003 7.49249 7.9923 9.10049 6.0003 9.10049Z" fill="#C3CAD9"/>
</svg>
