<svg width="20" height="21" viewBox="0 0 20 21" fill="none" xmlns="http://www.w3.org/2000/svg">
<path fill-rule="evenodd" clip-rule="evenodd" d="M18 0.5H2C0.9 0.5 0 1.4 0 2.5V14.5C0 15.6 0.9 16.5 2 16.5H16L20 20.5V2.5C20 1.4 19.1 0.5 18 0.5ZM15 12.5H5C4.45 12.5 4 12.05 4 11.5C4 10.95 4.45 10.5 5 10.5H15C15.55 10.5 16 10.95 16 11.5C16 12.05 15.55 12.5 15 12.5ZM15 9.5H5C4.45 9.5 4 9.05 4 8.5C4 7.95 4.45 7.5 5 7.5H15C15.55 7.5 16 7.95 16 8.5C16 9.05 15.55 9.5 15 9.5ZM15 6.5H5C4.45 6.5 4 6.05 4 5.5C4 4.95 4.45 4.5 5 4.5H15C15.55 4.5 16 4.95 16 5.5C16 6.05 15.55 6.5 15 6.5Z" fill="#C3CAD9"/>
</svg>
