<svg width="20" height="21" viewBox="0 0 20 21" fill="none" xmlns="http://www.w3.org/2000/svg">
<path fill-rule="evenodd" clip-rule="evenodd" d="M13.4064 13.5314L10.0364 11.5314V7.00139C10.0364 6.60139 9.71638 6.28139 9.31638 6.28139H9.25638C8.85638 6.28139 8.53638 6.60139 8.53638 7.00139V11.7214C8.53638 12.0714 8.71638 12.4014 9.02638 12.5814L12.6764 14.7714C13.0164 14.9714 13.4564 14.8714 13.6564 14.5314C13.8664 14.1814 13.7564 13.7314 13.4064 13.5314ZM18.7164 3.29139L15.6364 0.73139C15.2164 0.38139 14.5864 0.43139 14.2264 0.86139C13.8764 1.28139 13.9364 1.91139 14.3564 2.27139L17.4264 4.83139C17.8464 5.18139 18.4764 5.13139 18.8364 4.70139C19.1964 4.28139 19.1364 3.65139 18.7164 3.29139ZM1.63638 4.83139L4.70638 2.27139C5.13638 1.91139 5.19638 1.28139 4.83638 0.86139C4.48638 0.43139 3.85638 0.38139 3.43638 0.73139L0.356383 3.29139C-0.0636172 3.65139 -0.123617 4.28139 0.236383 4.70139C0.586383 5.13139 1.21638 5.18139 1.63638 4.83139ZM9.53638 2.28139C4.56638 2.28139 0.536383 6.31139 0.536383 11.2814C0.536383 16.2514 4.56638 20.2814 9.53638 20.2814C14.5064 20.2814 18.5364 16.2514 18.5364 11.2814C18.5364 6.31139 14.5064 2.28139 9.53638 2.28139ZM9.53638 18.2814C5.67638 18.2814 2.53638 15.1414 2.53638 11.2814C2.53638 7.42139 5.67638 4.28139 9.53638 4.28139C13.3964 4.28139 16.5364 7.42139 16.5364 11.2814C16.5364 15.1414 13.3964 18.2814 9.53638 18.2814Z" fill="#C3CAD9"/>
</svg>
